<svg xmlns="http://www.w3.org/2000/svg" xmlns:xlink="http://www.w3.org/1999/xlink" width="500" zoomAndPan="magnify" viewBox="0 0 375 374.999991" height="500" preserveAspectRatio="xMidYMid meet" version="1.0"><defs><g/></defs><g fill="#000000" fill-opacity="1"><g transform="translate(27.27435, 208.874986)"><g><path d="M 26.640625 -30.640625 C 23.972656 -30.640625 21.675781 -29.648438 19.75 -27.671875 C 17.832031 -25.703125 16.875 -23.332031 16.875 -20.5625 C 16.875 -17.726562 17.832031 -15.328125 19.75 -13.359375 C 21.675781 -11.390625 23.972656 -10.40625 26.640625 -10.40625 C 27.921875 -10.40625 29.132812 -10.5625 30.28125 -10.875 C 31.425781 -11.195312 32.265625 -11.519531 32.796875 -11.84375 L 33.515625 -12.3125 L 38.3125 -2.484375 C 37.945312 -2.210938 37.429688 -1.875 36.765625 -1.46875 C 36.097656 -1.070312 34.578125 -0.53125 32.203125 0.15625 C 29.828125 0.851562 27.28125 1.203125 24.5625 1.203125 C 18.53125 1.203125 13.234375 -0.914062 8.671875 -5.15625 C 4.117188 -9.394531 1.84375 -14.476562 1.84375 -20.40625 C 1.84375 -26.375 4.117188 -31.503906 8.671875 -35.796875 C 13.234375 -40.085938 18.53125 -42.234375 24.5625 -42.234375 C 27.28125 -42.234375 29.785156 -41.910156 32.078125 -41.265625 C 34.367188 -40.628906 35.992188 -39.992188 36.953125 -39.359375 L 38.3125 -38.40625 L 33.515625 -28.71875 C 31.753906 -30 29.460938 -30.640625 26.640625 -30.640625 Z M 26.640625 -30.640625 "/></g></g></g><g fill="#000000" fill-opacity="1"><g transform="translate(59.030515, 208.874986)"><g><path d="M 7.59375 -5.078125 C 3.757812 -9.265625 1.84375 -14.394531 1.84375 -20.46875 C 1.84375 -26.550781 3.757812 -31.695312 7.59375 -35.90625 C 11.4375 -40.125 16.316406 -42.234375 22.234375 -42.234375 C 27.679688 -42.234375 32.164062 -40.53125 35.6875 -37.125 L 35.6875 -41.046875 L 49.84375 -41.046875 L 49.84375 0 L 35.84375 0 L 35.84375 -4.640625 L 35.6875 -4.640625 C 32.164062 -0.742188 27.679688 1.203125 22.234375 1.203125 C 16.316406 1.203125 11.4375 -0.890625 7.59375 -5.078125 Z M 19.640625 -27.4375 C 17.796875 -25.625 16.875 -23.300781 16.875 -20.46875 C 16.875 -17.644531 17.753906 -15.335938 19.515625 -13.546875 C 21.273438 -11.765625 23.597656 -10.875 26.484375 -10.875 C 29.253906 -10.875 31.53125 -11.78125 33.3125 -13.59375 C 35.101562 -15.40625 36 -17.703125 36 -20.484375 C 36 -23.304688 35.078125 -25.625 33.234375 -27.4375 C 31.398438 -29.25 29.148438 -30.15625 26.484375 -30.15625 C 23.765625 -30.15625 21.484375 -29.25 19.640625 -27.4375 Z M 19.640625 -27.4375 "/></g></g></g><g fill="#000000" fill-opacity="1"><g transform="translate(106.145189, 208.874986)"><g><path d="M 22.640625 -42.234375 C 24.984375 -42.234375 27.300781 -41.96875 29.59375 -41.4375 C 31.894531 -40.90625 33.601562 -40.375 34.71875 -39.84375 L 36.40625 -39.046875 L 31.765625 -29.765625 C 28.554688 -31.460938 25.515625 -32.3125 22.640625 -32.3125 C 21.035156 -32.3125 19.898438 -32.140625 19.234375 -31.796875 C 18.566406 -31.453125 18.234375 -30.800781 18.234375 -29.84375 C 18.234375 -29.625 18.257812 -29.40625 18.3125 -29.1875 C 18.375 -28.976562 18.484375 -28.78125 18.640625 -28.59375 C 18.796875 -28.40625 18.941406 -28.242188 19.078125 -28.109375 C 19.210938 -27.984375 19.4375 -27.835938 19.75 -27.671875 C 20.070312 -27.515625 20.328125 -27.394531 20.515625 -27.3125 C 20.703125 -27.238281 21.007812 -27.117188 21.4375 -26.953125 C 21.863281 -26.796875 22.179688 -26.675781 22.390625 -26.59375 C 22.609375 -26.519531 22.96875 -26.398438 23.46875 -26.234375 C 23.976562 -26.078125 24.367188 -25.972656 24.640625 -25.921875 C 26.296875 -25.441406 27.734375 -24.90625 28.953125 -24.3125 C 30.179688 -23.726562 31.472656 -22.929688 32.828125 -21.921875 C 34.191406 -20.910156 35.25 -19.628906 36 -18.078125 C 36.75 -16.535156 37.125 -14.773438 37.125 -12.796875 C 37.125 -3.460938 30.644531 1.203125 17.6875 1.203125 C 14.75 1.203125 11.957031 0.75 9.3125 -0.15625 C 6.675781 -1.0625 4.769531 -1.96875 3.59375 -2.875 L 1.84375 -4.3125 L 7.59375 -14 C 8.019531 -13.625 8.578125 -13.179688 9.265625 -12.671875 C 9.960938 -12.171875 11.21875 -11.476562 13.03125 -10.59375 C 14.851562 -9.71875 16.429688 -9.28125 17.765625 -9.28125 C 20.691406 -9.28125 22.15625 -10.265625 22.15625 -12.234375 C 22.15625 -13.140625 21.78125 -13.847656 21.03125 -14.359375 C 20.289062 -14.867188 19.023438 -15.441406 17.234375 -16.078125 C 15.453125 -16.722656 14.054688 -17.3125 13.046875 -17.84375 C 10.484375 -19.175781 8.453125 -20.679688 6.953125 -22.359375 C 5.460938 -24.035156 4.71875 -26.265625 4.71875 -29.046875 C 4.71875 -33.203125 6.332031 -36.4375 9.5625 -38.75 C 12.789062 -41.070312 17.148438 -42.234375 22.640625 -42.234375 Z M 22.640625 -42.234375 "/></g></g></g><g fill="#000000" fill-opacity="1"><g transform="translate(137.98134, 208.874986)"><g><path d="M 4.796875 0 L 4.796875 -68.796875 L 18.953125 -68.796875 L 18.953125 -36.71875 L 19.125 -36.71875 C 22.800781 -40.394531 26.71875 -42.234375 30.875 -42.234375 C 32.90625 -42.234375 34.921875 -41.96875 36.921875 -41.4375 C 38.921875 -40.90625 40.835938 -40.078125 42.671875 -38.953125 C 44.515625 -37.835938 46.007812 -36.253906 47.15625 -34.203125 C 48.300781 -32.148438 48.875 -29.765625 48.875 -27.046875 L 48.875 0 L 34.71875 0 L 34.71875 -23.203125 C 34.71875 -25.335938 34.035156 -27.203125 32.671875 -28.796875 C 31.316406 -30.398438 29.546875 -31.203125 27.359375 -31.203125 C 25.222656 -31.203125 23.285156 -30.375 21.546875 -28.71875 C 19.816406 -27.0625 18.953125 -25.222656 18.953125 -23.203125 L 18.953125 0 Z M 4.796875 0 "/></g></g></g><g fill="#000000" fill-opacity="1"><g transform="translate(183.336172, 208.874986)"><g><path d="M 18.15625 -41.046875 L 18.15625 -21.515625 C 18.15625 -17.460938 18.769531 -14.582031 20 -12.875 C 21.226562 -11.164062 23.304688 -10.3125 26.234375 -10.3125 C 29.171875 -10.3125 31.25 -11.164062 32.46875 -12.875 C 33.695312 -14.582031 34.3125 -17.460938 34.3125 -21.515625 L 34.3125 -41.046875 L 48.484375 -41.046875 L 48.484375 -18.078125 C 48.484375 -11.253906 46.707031 -6.332031 43.15625 -3.3125 C 39.613281 -0.300781 33.972656 1.203125 26.234375 1.203125 C 18.503906 1.203125 12.863281 -0.300781 9.3125 -3.3125 C 5.769531 -6.332031 4 -11.253906 4 -18.078125 L 4 -41.046875 Z M 18.15625 -41.046875 "/></g></g></g><g fill="#000000" fill-opacity="1"><g transform="translate(228.291046, 208.874986)"><g><path d="M 22.640625 -42.234375 C 24.984375 -42.234375 27.300781 -41.96875 29.59375 -41.4375 C 31.894531 -40.90625 33.601562 -40.375 34.71875 -39.84375 L 36.40625 -39.046875 L 31.765625 -29.765625 C 28.554688 -31.460938 25.515625 -32.3125 22.640625 -32.3125 C 21.035156 -32.3125 19.898438 -32.140625 19.234375 -31.796875 C 18.566406 -31.453125 18.234375 -30.800781 18.234375 -29.84375 C 18.234375 -29.625 18.257812 -29.40625 18.3125 -29.1875 C 18.375 -28.976562 18.484375 -28.78125 18.640625 -28.59375 C 18.796875 -28.40625 18.941406 -28.242188 19.078125 -28.109375 C 19.210938 -27.984375 19.4375 -27.835938 19.75 -27.671875 C 20.070312 -27.515625 20.328125 -27.394531 20.515625 -27.3125 C 20.703125 -27.238281 21.007812 -27.117188 21.4375 -26.953125 C 21.863281 -26.796875 22.179688 -26.675781 22.390625 -26.59375 C 22.609375 -26.519531 22.96875 -26.398438 23.46875 -26.234375 C 23.976562 -26.078125 24.367188 -25.972656 24.640625 -25.921875 C 26.296875 -25.441406 27.734375 -24.90625 28.953125 -24.3125 C 30.179688 -23.726562 31.472656 -22.929688 32.828125 -21.921875 C 34.191406 -20.910156 35.25 -19.628906 36 -18.078125 C 36.75 -16.535156 37.125 -14.773438 37.125 -12.796875 C 37.125 -3.460938 30.644531 1.203125 17.6875 1.203125 C 14.75 1.203125 11.957031 0.75 9.3125 -0.15625 C 6.675781 -1.0625 4.769531 -1.96875 3.59375 -2.875 L 1.84375 -4.3125 L 7.59375 -14 C 8.019531 -13.625 8.578125 -13.179688 9.265625 -12.671875 C 9.960938 -12.171875 11.21875 -11.476562 13.03125 -10.59375 C 14.851562 -9.71875 16.429688 -9.28125 17.765625 -9.28125 C 20.691406 -9.28125 22.15625 -10.265625 22.15625 -12.234375 C 22.15625 -13.140625 21.78125 -13.847656 21.03125 -14.359375 C 20.289062 -14.867188 19.023438 -15.441406 17.234375 -16.078125 C 15.453125 -16.722656 14.054688 -17.3125 13.046875 -17.84375 C 10.484375 -19.175781 8.453125 -20.679688 6.953125 -22.359375 C 5.460938 -24.035156 4.71875 -26.265625 4.71875 -29.046875 C 4.71875 -33.203125 6.332031 -36.4375 9.5625 -38.75 C 12.789062 -41.070312 17.148438 -42.234375 22.640625 -42.234375 Z M 22.640625 -42.234375 "/></g></g></g><g fill="#000000" fill-opacity="1"><g transform="translate(260.127203, 208.874986)"><g><path d="M 4.796875 0 L 4.796875 -68.796875 L 18.953125 -68.796875 L 18.953125 -36.71875 L 19.125 -36.71875 C 22.800781 -40.394531 26.71875 -42.234375 30.875 -42.234375 C 32.90625 -42.234375 34.921875 -41.96875 36.921875 -41.4375 C 38.921875 -40.90625 40.835938 -40.078125 42.671875 -38.953125 C 44.515625 -37.835938 46.007812 -36.253906 47.15625 -34.203125 C 48.300781 -32.148438 48.875 -29.765625 48.875 -27.046875 L 48.875 0 L 34.71875 0 L 34.71875 -23.203125 C 34.71875 -25.335938 34.035156 -27.203125 32.671875 -28.796875 C 31.316406 -30.398438 29.546875 -31.203125 27.359375 -31.203125 C 25.222656 -31.203125 23.285156 -30.375 21.546875 -28.71875 C 19.816406 -27.0625 18.953125 -25.222656 18.953125 -23.203125 L 18.953125 0 Z M 4.796875 0 "/></g></g></g><g fill="#000000" fill-opacity="1"><g transform="translate(305.482035, 208.874986)"><g/></g></g><g fill="#000000" fill-opacity="1"><g transform="translate(319.799898, 208.874986)"><g><path d="M 13.921875 -17.125 C 16.484375 -17.125 18.65625 -16.226562 20.4375 -14.4375 C 22.226562 -12.65625 23.125 -10.484375 23.125 -7.921875 C 23.125 -5.410156 22.226562 -3.257812 20.4375 -1.46875 C 18.65625 0.3125 16.484375 1.203125 13.921875 1.203125 C 11.410156 1.203125 9.257812 0.3125 7.46875 -1.46875 C 5.6875 -3.257812 4.796875 -5.410156 4.796875 -7.921875 C 4.796875 -10.484375 5.6875 -12.65625 7.46875 -14.4375 C 9.257812 -16.226562 11.410156 -17.125 13.921875 -17.125 Z M 13.921875 -17.125 "/></g></g></g></svg>