<svg width="16" height="16" viewBox="0 0 16 16" fill="none" xmlns="http://www.w3.org/2000/svg">
<path d="M4 7C6.21071 7 8 5.43437 8 3.5C8 1.56562 6.21071 0 4 0C1.78929 0 0 1.56562 0 3.5C0 5.43437 1.78929 7 4 7ZM4 2C4.94643 2 5.71429 2.67188 5.71429 3.5C5.71429 4.32812 4.94643 5 4 5C3.05357 5 2.28571 4.32812 2.28571 3.5C2.28571 2.67188 3.05357 2 4 2ZM12 9C9.78929 9 8 10.5656 8 12.5C8 14.4344 9.78929 16 12 16C14.2107 16 16 14.4344 16 12.5C16 10.5656 14.2107 9 12 9ZM12 14C11.0536 14 10.2857 13.3281 10.2857 12.5C10.2857 11.6719 11.0536 11 12 11C12.9464 11 13.7143 11.6719 13.7143 12.5C13.7143 13.3281 12.9464 14 12 14ZM14.0107 0.00625L15.1393 0.003125C15.8321 0 16.2429 0.684375 15.8429 1.18438L2.76429 15.675C2.68543 15.7734 2.58065 15.8537 2.4588 15.9092C2.33696 15.9647 2.20164 15.9937 2.06429 15.9937L0.871429 15.9969C0.175 15.9969 -0.232143 15.3125 0.167857 14.8156L13.3107 0.325C13.4714 0.125 13.7321 0.00625 14.0107 0.00625Z" fill="white"/>
</svg>
